ffmpeg version 3.4.8-0ubuntu0.2 Copyright (c) 2000-2020 the FFmpeg developers
  built with gcc 7 (Ubuntu 7.5.0-3ubuntu1~18.04)
  configuration: --prefix=/usr --extra-version=0ubuntu0.2 --toolchain=hardened --libdir=/usr/lib/x86_64-linux-gnu --incdir=/usr/include/x86_64-linux-gnu --enable-gpl --disable-stripping --enable-avresample --enable-avisynth --enable-gnutls --enable-ladspa --enable-libass --enable-libbluray --enable-libbs2b --enable-libcaca --enable-libcdio --enable-libflite --enable-libfontconfig --enable-libfreetype --enable-libfribidi --enable-libgme --enable-libgsm --enable-libmp3lame --enable-libmysofa --enable-libopenjpeg --enable-libopenmpt --enable-libopus --enable-libpulse --enable-librubberband --enable-librsvg --enable-libshine --enable-libsnappy --enable-libsoxr --enable-libspeex --enable-libssh --enable-libtheora --enable-libtwolame --enable-libvorbis --enable-libvpx --enable-libwavpack --enable-libwebp --enable-libx265 --enable-libxml2 --enable-libxvid --enable-libzmq --enable-libzvbi --enable-omx --enable-openal --enable-opengl --enable-sdl2 --enable-libdc1394 --enable-libdrm --enable-libiec61883 --enable-chromaprint --enable-frei0r --enable-libopencv --enable-libx264 --enable-shared
  libavutil      55. 78.100 / 55. 78.100
  libavcodec     57.107.100 / 57.107.100
  libavformat    57. 83.100 / 57. 83.100
  libavdevice    57. 10.100 / 57. 10.100
  libavfilter     6.107.100 /  6.107.100
  libavresample   3.  7.  0 /  3.  7.  0
  libswscale      4.  8.100 /  4.  8.100
  libswresample   2.  9.100 /  2.  9.100
  libpostproc    54.  7.100 / 54.  7.100
[rawvideo @ 0x560a470faa20] Estimating duration from bitrate, this may be inaccurate
Input #0, rawvideo, from '../../SVC-Encoder-20220109T061506Z-001/SVC-Encoder/Dataset/RollerCoaster/ERP_8x8/tile_yuv/Tile_0_480x240.yuv':
  Duration: 00:00:10.00, start: 0.000000, bitrate: 41472 kb/s
    Stream #0:0: Video: rawvideo (I420 / 0x30323449), yuv420p, 480x240, 41472 kb/s, 30 tbr, 30 tbn, 30 tbc
Stream mapping:
  Stream #0:0 -> #0:0 (rawvideo (native) -> h264 (libx264))
Press [q] to stop, [?] for help
[libx264 @ 0x560a47107c60] using cpu capabilities: MMX2 SSE2Fast LZCNT SSSE3 SSE4.2 AVX
[libx264 @ 0x560a47107c60] profile High, level 2.1
Output #0, rawvideo, to 'RollerCoaster_Tile_0_480x240_x264_QP_20.h264':
  Metadata:
    encoder         : Lavf57.83.100
    Stream #0:0: Video: h264 (libx264), yuv420p, 480x240, q=-1--1, 30 fps, 30 tbn, 30 tbc
    Metadata:
      encoder         : Lavc57.107.100 libx264
    Side data:
      cpb: bitrate max/min/avg: 0/0/0 buffer size: 0 vbv_delay: -1
frame=  300 fps=0.0 q=26.0 LPSNR=Y:inf U:inf V:inf *:inf size=      12kB time=00:00:09.93 bitrate=   9.9kbits/s speed=33.9x    
video:12kB audio:0kB subtitle:0kB other streams:0kB global headers:0kB muxing overhead: 0.000000%
[libx264 @ 0x560a47107c60] frame I:2     Avg QP:19.01  size:   836  PSNR Mean Y:58.96 U:60.41 V:64.56 Avg:59.69 Global:59.66
[libx264 @ 0x560a47107c60] frame P:76    Avg QP:19.81  size:    92  PSNR Mean Y:59.00 U:58.94 V:61.49 Avg:59.28 Global:59.25
[libx264 @ 0x560a47107c60] frame B:222   Avg QP:25.43  size:    16  PSNR Mean Y:58.92 U:58.80 V:61.33 Avg:59.18 Global:59.15
[libx264 @ 0x560a47107c60] consecutive B-frames:  1.3%  0.0%  0.0% 98.7%
[libx264 @ 0x560a47107c60] mb I  I16..4: 62.0% 38.0%  0.0%
[libx264 @ 0x560a47107c60] mb P  I16..4:  2.6%  0.4%  0.0%  P16..4:  4.6%  0.3%  0.0%  0.0%  0.0%    skip:92.2%
[libx264 @ 0x560a47107c60] mb B  I16..4:  0.0%  0.0%  0.0%  B16..8:  0.4%  0.0%  0.0%  direct: 0.0%  skip:99.6%  L0:64.8% L1:35.2% BI: 0.0%
[libx264 @ 0x560a47107c60] 8x8 transform intra:24.6% inter:99.3%
[libx264 @ 0x560a47107c60] coded y,uvDC,uvAC intra: 1.4% 7.8% 0.0% inter: 0.0% 0.2% 0.0%
[libx264 @ 0x560a47107c60] i16 v,h,dc,p: 28% 58%  5%  9%
[libx264 @ 0x560a47107c60] i8 v,h,dc,ddl,ddr,vr,hd,vl,hu:  9% 56% 35%  0%  0%  0%  0%  0%  0%
[libx264 @ 0x560a47107c60] i8c dc,h,v,p: 75% 19%  5%  0%
[libx264 @ 0x560a47107c60] Weighted P-Frames: Y:0.0% UV:0.0%
[libx264 @ 0x560a47107c60] ref P L0: 92.1%  0.7%  5.0%  2.2%
[libx264 @ 0x560a47107c60] ref B L0: 95.8%  3.8%  0.4%
[libx264 @ 0x560a47107c60] ref B L1: 97.7%  2.3%
[libx264 @ 0x560a47107c60] PSNR Mean Y:58.943 U:58.850 V:61.392 Avg:59.208 Global:59.177 kb/s:9.88
